<?xml version="1.0" ?><!DOCTYPE svg  PUBLIC '-//W3C//DTD SVG 1.1//EN'  'http://www.w3.org/Graphics/SVG/1.1/DTD/svg11.dtd'><svg height="512px" style="enable-background:new 0 0 512 512;" version="1.1" viewBox="0 0 512 512" width="512px" xml:space="preserve" xmlns="http://www.w3.org/2000/svg" xmlns:xlink="http://www.w3.org/1999/xlink"><g id="_x39_9_x2C__moustache_x2C__Hipster_x2C__movember_x2C__male_x2C__men"><g><path d="M180.544,163.08c4.261-1.065,8.523-1.545,12.675-1.522c15.068,0.108,28.917,7.066,39.962,17.894    c10.762,10.566,18.894,24.873,22.83,40.115c3.934-15.242,12.065-29.549,22.829-40.115c11.023-10.827,24.895-17.785,39.961-17.894    c4.153-0.022,8.393,0.457,12.676,1.522c26.461,6.652,42.854,38.005,57.616,66.27c10.522,20.09,20.178,38.57,31.483,44.332    c14.045,7.176,31.982-5.805,60.398-61.486c0.436-0.869,1.35-1.457,2.392-1.457c1.457,0.021,2.653,1.217,2.633,2.675    c-0.653,70.031-28.701,109.993-65.097,127.083c-14.938,7.021-31.287,10.174-47.724,9.936    c-16.395-0.239-32.875-3.827-48.138-10.263c-33.178-14.002-60.64-41.506-69.03-77.337c-8.414,35.831-35.875,63.335-69.053,77.337    c-15.242,6.436-31.743,10.023-48.138,10.263c-16.414,0.238-32.765-2.914-47.724-9.936c-36.396-17.09-64.42-57.052-65.094-127.083    c0-1.458,1.174-2.653,2.651-2.675c1.044,0,1.936,0.588,2.392,1.457c28.396,55.682,46.333,68.662,60.377,61.486    c11.306-5.762,20.981-24.242,31.484-44.332C137.689,201.085,154.083,169.732,180.544,163.08"/></g></g><g id="Layer_1"/></svg>