<?xml version="1.0" ?><!DOCTYPE svg  PUBLIC '-//W3C//DTD SVG 1.1//EN'  'http://www.w3.org/Graphics/SVG/1.1/DTD/svg11.dtd'><svg height="512px" style="enable-background:new 0 0 512 512;" version="1.1" viewBox="0 0 512 512" width="512px" xml:space="preserve" xmlns="http://www.w3.org/2000/svg" xmlns:xlink="http://www.w3.org/1999/xlink"><g id="_x38_0_x2C__moustache_x2C__Hipster_x2C__movember_x2C__beared_x2C__men"><g><path d="M295.237,153.371c-1.926-0.493-3.829-0.705-5.662-0.705    c-6.79,0.048-13.11,3.267-18.209,8.271c-5.24,5.145-9.188,12.146-11.044,19.619c-0.798,3.195-1.221,6.484-1.197,9.703    c0.047,8.177,2.278,15.671,6.086,22.344l3.289,5.006c6.108,8.223,14.708,14.871,24.528,19.477    c10.809,5.075,23.05,7.66,34.985,7.189c2.585-0.094,5.169-0.328,7.73-0.729l0.211-0.046l0.329-0.048h0.094l0.4-0.07l0.046-0.023    l0.377-0.07l0.164-0.023l0.234-0.047l0.307-0.047l0.094-0.023l0.422-0.07l0.024-0.023l0.376-0.07l0.164-0.023l0.235-0.072    l0.306-0.046l0.094-0.023l0.423-0.095l0.023-0.023l0.376-0.07l0.164-0.047l0.236-0.047l0.305-0.07l0.094-0.023l0.399-0.117h0.048    l0.352-0.094l0.164-0.047l0.236-0.07l0.305-0.072l0.094-0.021l0.399-0.118h0.023l0.376-0.118l0.164-0.047l0.236-0.07l0.281-0.094    l0.117-0.023l0.375-0.117l0.048-0.024l0.353-0.118l0.164-0.046l0.235-0.07l0.282-0.095l0.117-0.047l0.377-0.117l0.022-0.023    l0.376-0.117l0.141-0.07l0.234-0.07l0.283-0.117l0.117-0.024l0.376-0.142l0.023-0.023l0.376-0.141l0.141-0.047l0.235-0.094    l0.282-0.117l0.094-0.047l0.398-0.142l0,0l0.377-0.164l0.375-0.165l0.26-0.117l0.516-0.211l0.024-0.024l0.47-0.212l0.328-0.14    l0.166-0.095l0.516-0.234l0.118-0.047l0.376-0.188l0.399-0.212l0.094-0.047l0.681-0.352l0.283-0.142l0.492-0.282l0,0l0.471-0.258    l0.306-0.164l0.188-0.117l0.47-0.283l0.095-0.047c14.144-8.387,24.999-23.73,28.03-47.625    c-14.215,23.707-25.611,27.865-35.996,22.555c-8.528-4.346-15.719-15.295-23.214-26.762    C316.359,170.734,306.915,156.309,295.237,153.371 M222.918,152.666c-1.833,0-3.736,0.212-5.686,0.705    c-11.677,2.938-21.146,17.388-30.075,31.037c-7.518,11.467-14.685,22.416-23.214,26.762c-10.384,5.311-21.803,1.152-35.995-22.555    c3.431,27.302,17.128,43.443,34.256,50.797c18.021,7.754,39.262,5.874,56.766-2.326c9.82-4.605,18.42-11.254,24.506-19.477    l5.568-8.436c2.703-5.78,4.253-12.124,4.3-18.914c0.023-3.219-0.399-6.508-1.199-9.727c-1.879-7.473-5.803-14.474-11.042-19.596    C236.028,155.933,229.685,152.714,222.918,152.666z M299.584,245.896c-1.245-0.422-2.49-0.869-3.735-1.338    c-15.037-5.828-28.101-15.932-35.643-29.111L256,209.057l-1.903,2.89c-7.119,14.872-21.146,26.291-37.476,32.612    c-1.246,0.469-2.491,0.916-3.759,1.338c5.004,3.29,10.737,6.039,17.01,8.061c8.012,2.584,16.94,4.041,26.363,4.041    c9.421,0,18.35-1.457,26.361-4.041C288.87,251.936,294.604,249.187,299.584,245.896z M361.848,60.47h-0.212    c0.235,1.574,0.4,3.148,0.471,4.77l0,0l0.023,0.329v0.094v0.07v0.095l0,0v0.07l0.024,0.094v0.094v0.07v0.095v0.07v0.094v0.023    v0.047v0.094v0.095v0.07l0.021,0.094v0.07v0.095v0.047v0.047v0.07v0.094v0.07v0.095v0.07v0.094v0.07v0.094v0.095v0.07v0.094v0.07    v0.094v0.071v0.046v0.048v0.07v0.094l-0.021,0.095v0.07v0.094v0.07v0.07v0.023v0.071v0.094v0.07v0.094v0.094l-0.024,0.071v0.094    l0,0v0.07v0.094v0.071v0.094c-0.071,1.691-0.259,3.384-0.494,5.028h0.212c1.904,0,3.666-0.775,4.958-1.998l0.117-0.117    c1.292-1.315,2.114-3.102,2.114-5.099c0-1.974-0.822-3.759-2.114-5.075C365.631,61.292,363.821,60.47,361.848,60.47z     M150.833,60.47h-0.211c-1.973,0-3.782,0.822-5.075,2.114c-1.316,1.316-2.115,3.102-2.115,5.075c0,1.997,0.822,3.783,2.115,5.099    l0.118,0.117c1.292,1.223,3.054,1.998,4.957,1.998h0.211c-0.094-0.588-0.164-1.199-0.235-1.787l0,0v-0.094l-0.022-0.094v-0.164    l-0.024-0.07l-0.023-0.188l0,0l-0.07-0.752V71.63v-0.069v-0.095l-0.024-0.071v-0.094l0,0v-0.094l-0.023-0.164v-0.07v-0.094    l-0.024-0.164V70.69v-0.07v-0.071v-0.094l-0.022-0.094v-0.07v-0.094v-0.07v-0.024v-0.07l-0.024-0.094v-0.07v-0.095v-0.07v-0.094    v-0.094l-0.023-0.023v-0.047v-0.095v-0.07v-0.094v-0.07v-0.094v-0.095v-0.047v-0.023v-0.094l-0.024-0.07V68.6v-0.095v-0.07v-0.094    v-0.07l0,0v-0.095v-0.07v-0.094v-0.094v-0.07v-0.095v-0.094v-0.07v-0.094v-0.07V67.33v-0.07v-0.094v-0.07v-0.047v-0.047v-0.095    v-0.07v-0.094v-0.07l0.024-0.095v-0.094v-0.047v-0.023V66.32v-0.07v-0.095v-0.07v-0.094v-0.094v-0.07h0.023v-0.095v-0.07v-0.094    C150.411,63.854,150.576,62.162,150.833,60.47z M273.34,72.641c-0.376-0.117-0.752-0.307-1.104-0.54    c-16.494-11.138-30.896-1.786-33.012-0.259c-0.986,9.845-5.404,18.68-12.006,25.305l-0.141,0.141    c-7.519,7.448-17.88,12.054-29.322,12.054c-11.513,0-21.945-4.651-29.487-12.194l-0.141-0.141    c-6.837-6.908-11.278-16.236-11.959-26.551l-0.023-0.07v-0.047v-0.023v-0.07v-0.07l-0.023-0.306v-0.071l0,0v-0.07v-0.094v-0.07    l-0.024-0.07v-0.07v-0.071v-0.07v-0.023v-0.07v-0.07v-0.071v-0.164l-0.023-0.07v-0.07l0,0v-0.07v-0.094v-0.071v-0.07v-0.069    v-0.095v-0.071v-0.07v-0.07v-0.07v-0.094v-0.07v-0.071v-0.094v-0.07v-0.07v-0.071v-0.094v-0.07v-0.07v-0.07v-0.094v-0.07v-0.071    v-0.094v-0.07v-0.07v-0.071l0,0v-0.07l0.023-0.094v-0.07v-0.07v-0.07v-0.094v-0.071l0,0v-0.07v-0.07V65.85l0.024-0.07v-0.094    v-0.07v-0.07v-0.023v-0.047l0.023-0.165v-0.07v-0.07v-0.142v-0.023v-0.047l0.094-0.963v-0.07l0,0    c0.893-10.01,5.333-19.008,12.03-25.729c7.542-7.541,17.974-12.193,29.487-12.193c11.513,0,21.921,4.652,29.463,12.193    c3.759,3.783,6.813,8.271,8.928,13.275c6.484-3.406,22.204-9.328,39.896,0.658c2.114-5.263,5.262-9.986,9.21-13.934    c7.542-7.518,17.975-12.193,29.464-12.193c11.536,0,21.944,4.652,29.487,12.193c24.811,24.859,10.032,71.146-29.487,71.146    c-11.489,0-21.922-4.651-29.464-12.194C278.814,90.709,274.468,82.156,273.34,72.641z M239.13,62.844    c6.696-3.291,19.619-7.309,34.115,0.728c0.118-1.245,0.306-2.491,0.541-3.712c-16.494-10.315-31.084-3.242-35.243-0.775    C238.801,60.305,238.989,61.574,239.13,62.844z M256,485.999c4.135-22.462,20.746-27.702,40.389-33.857    c17.717-5.568,38.134-11.982,52.912-34.139c0.869-1.316,2.679-1.669,3.995-0.775c0.634,0.423,1.033,1.033,1.197,1.738    c0.4-1.668,0.94-3.548,1.692-5.639c2.819-8.012,6.625-18.772,11.771-32.071c0.563-1.48,2.231-2.232,3.712-1.669    c0.517,0.212,0.939,0.54,1.245,0.964l0.259-1.716c1.667-9.962,4.135-24.693,8.059-43.585c0.329-1.55,1.856-2.561,3.407-2.231    c0.939,0.188,1.668,0.823,2.044,1.646c2.021,4.018,3.548,6.273,4.629,6.978c0.517,0.353-0.682-0.751-0.564-1.198    c0.729-2.678,1.058-7.213,1.034-13.134c-0.07-23.19-5.545-66.399-12.547-105.425c-6.86,10.855-16.188,18.303-26.715,22.838    c-14.332,6.155-30.755,6.743-45.84,3.172c-6.273,4.863-13.862,8.811-22.32,11.536c-8.601,2.796-18.139,4.347-28.124,4.347    c-9.986,0-19.525-1.551-28.125-4.347c-8.458-2.726-16.048-6.673-22.321-11.536c-19.642,4.652-41.728,2.209-58.269-10.033    c-5.615-4.182-10.644-9.492-14.755-16c-7.001,39.003-12.476,82.234-12.546,105.448c-0.024,5.921,0.305,10.456,1.034,13.134    c0.117,0.447-1.058,1.551-0.564,1.198c1.104-0.729,2.631-3.007,4.676-7.096c0.728-1.409,2.443-1.997,3.877-1.292    c0.798,0.423,1.339,1.15,1.527,1.996c3.924,18.892,6.391,33.623,8.059,43.585l0.235,1.716c0.587-0.775,1.574-1.245,2.607-1.128    c1.151,0.118,2.068,0.916,2.42,1.95c5.122,13.228,8.905,23.966,11.725,31.954c0.729,2.091,1.27,3.971,1.692,5.615    c0.282-1.222,1.362-2.161,2.678-2.208c1.034-0.048,1.974,0.469,2.515,1.269c14.778,22.156,35.196,28.57,52.912,34.139    C235.253,458.297,251.865,463.537,256,485.999z" style="fill-rule:evenodd;clip-rule:evenodd;"/></g></g><g id="Layer_1"/></svg>